<svg data-v-423bf9ae="" xmlns="http://www.w3.org/2000/svg" viewBox="0 0 340.62988100985433 60" class="font"><!----><!----><!----><g data-v-423bf9ae="" id="0cc02734-c8e0-421c-9083-22b09aa70d58" fill="#FEC503" transform="matrix(4.294917305453187,0,0,4.294917305453187,-0.4724406106646484,-15.289904884819045)"><path d="M3.81 7.28L3.81 7.28L3.81 7.28Q3.75 7.08 3.72 6.82L3.72 6.82L3.72 6.82Q3.68 6.57 3.68 6.06L3.68 6.06L3.68 6.06Q3.68 5.74 3.70 5.41L3.70 5.41L3.70 5.41Q3.71 5.08 3.82 4.84L3.82 4.84L3.82 4.84Q4.51 4.97 5.29 5.07L5.29 5.07L5.29 5.07Q6.06 5.18 6.87 5.26L6.87 5.26L6.87 5.26Q7.69 5.35 8.50 5.40L8.50 5.40L8.50 5.40Q9.31 5.45 10.07 5.45L10.07 5.45L10.07 5.45Q11.10 5.45 11.73 5.36L11.73 5.36L11.73 5.36Q11.96 5.67 12.01 6.09L12.01 6.09L12.01 6.09Q12.07 6.51 12.07 6.87L12.07 6.87L12.07 6.87Q10.46 7.53 9.02 8.55L9.02 8.55L9.02 8.55Q7.57 9.56 6.40 10.67L6.40 10.67L6.40 10.67Q5.22 11.77 4.37 12.85L4.37 12.85L4.37 12.85Q3.51 13.93 3.09 14.73L3.09 14.73L3.09 14.73Q3.35 14.69 3.61 14.65L3.61 14.65L3.61 14.65Q3.88 14.62 4.19 14.59L4.19 14.59L4.19 14.59Q4.49 14.56 4.87 14.53L4.87 14.53L4.87 14.53Q5.25 14.50 5.74 14.48L5.74 14.48L5.74 14.48Q6.43 14.43 6.94 14.33L6.94 14.33L6.94 14.33Q7.46 14.22 7.83 14.11L7.83 14.11L7.83 14.11Q8.19 13.99 8.41 13.88L8.41 13.88L8.41 13.88Q8.62 13.78 8.72 13.71L8.72 13.71L8.72 13.71Q8.78 13.83 8.86 14.08L8.86 14.08L8.86 14.08Q8.93 14.34 9.00 14.64L9.00 14.64L9.00 14.64Q9.06 14.94 9.10 15.25L9.10 15.25L9.10 15.25Q9.14 15.57 9.14 15.83L9.14 15.83L9.14 15.83Q9.14 15.97 9.13 16.02L9.13 16.02L9.13 16.02Q9.13 16.07 9.11 16.13L9.11 16.13L9.11 16.13Q8.48 16.09 7.85 16.03L7.85 16.03L7.85 16.03Q7.21 15.97 6.58 15.97L6.58 15.97L6.58 15.97Q5.74 15.97 4.84 16.07L4.84 16.07L4.84 16.07Q3.93 16.16 3.10 16.34L3.10 16.34L3.10 16.34Q2.27 16.53 1.57 16.83L1.57 16.83L1.57 16.83Q0.88 17.12 0.46 17.53L0.46 17.53L0.46 17.53Q0.35 17.16 0.23 16.91L0.23 16.91L0.23 16.91Q0.11 16.65 0.11 16.28L0.11 16.28L0.11 16.28Q0.11 15.92 0.26 15.70L0.26 15.70L0.26 15.70Q0.41 15.48 0.66 15.34L0.66 15.34L0.66 15.34Q1.50 14.14 2.57 12.96L2.57 12.96L2.57 12.96Q3.64 11.77 4.86 10.67L4.86 10.67L4.86 10.67Q6.08 9.56 7.38 8.56L7.38 8.56L7.38 8.56Q8.68 7.56 9.98 6.73L9.98 6.73L9.98 6.73Q9.14 6.69 8.20 6.69L8.20 6.69L8.20 6.69Q7.55 6.69 6.90 6.72L6.90 6.72L6.90 6.72Q6.26 6.75 5.68 6.81L5.68 6.81L5.68 6.81Q5.11 6.87 4.63 6.99L4.63 6.99L4.63 6.99Q4.14 7.11 3.81 7.28ZM15.97 9.38L15.97 9.38L15.97 9.38Q15.92 10.25 15.67 10.87L15.67 10.87L15.67 10.87Q15.41 11.49 14.95 11.96L14.95 11.96L14.95 11.96Q14.48 12.43 13.80 12.81L13.80 12.81L13.80 12.81Q13.13 13.19 12.24 13.54L12.24 13.54L12.24 13.54Q12.24 13.62 12.23 13.71L12.23 13.71L12.23 13.71Q12.22 13.80 12.22 13.90L12.22 13.90L12.22 13.90Q12.22 14.08 12.25 14.28L12.25 14.28L12.25 14.28Q12.28 14.48 12.35 14.64L12.35 14.64L12.35 14.64Q12.42 14.81 12.54 14.92L12.54 14.92L12.54 14.92Q12.67 15.02 12.87 15.02L12.87 15.02L12.87 15.02Q13.24 15.02 13.61 14.85L13.61 14.85L13.61 14.85Q13.97 14.69 14.30 14.44L14.30 14.44L14.30 14.44Q14.63 14.20 14.92 13.91L14.92 13.91L14.92 13.91Q15.20 13.62 15.43 13.38L15.43 13.38L15.43 13.38Q15.57 13.51 15.67 13.62L15.67 13.62L15.67 13.62Q15.04 14.46 14.29 15.02L14.29 15.02L14.29 15.02Q13.54 15.57 12.87 15.72L12.87 15.72L12.87 15.72Q11.90 15.61 11.36 15.02L11.36 15.02L11.36 15.02Q10.82 14.42 10.82 13.58L10.82 13.58L10.82 13.58Q10.82 13.01 10.98 12.41L10.98 12.41L10.98 12.41Q11.14 11.82 11.43 11.26L11.43 11.26L11.43 11.26Q11.72 10.71 12.10 10.22L12.10 10.22L12.10 10.22Q12.49 9.73 12.93 9.37L12.93 9.37L12.93 9.37Q13.37 9.00 13.84 8.79L13.84 8.79L13.84 8.79Q14.31 8.58 14.77 8.58L14.77 8.58L14.77 8.58Q15.41 8.67 15.97 9.38ZM15.01 9.84L15.01 9.84L15.01 9.84Q14.63 9.90 14.22 10.15L14.22 10.15L14.22 10.15Q13.82 10.40 13.46 10.82L13.46 10.82L13.46 10.82Q13.10 11.24 12.81 11.80L12.81 11.80L12.81 11.80Q12.52 12.36 12.35 13.01L12.35 13.01L12.35 13.01Q13.47 12.45 14.21 11.63L14.21 11.63L14.21 11.63Q14.95 10.81 15.01 9.84ZM21.63 9.38L21.63 9.38L21.63 9.38Q21.57 10.25 21.32 10.87L21.32 10.87L21.32 10.87Q21.07 11.49 20.60 11.96L20.60 11.96L20.60 11.96Q20.13 12.43 19.46 12.81L19.46 12.81L19.46 12.81Q18.79 13.19 17.89 13.54L17.89 13.54L17.89 13.54Q17.89 13.62 17.89 13.71L17.89 13.71L17.89 13.71Q17.88 13.80 17.88 13.90L17.88 13.90L17.88 13.90Q17.88 14.08 17.91 14.28L17.91 14.28L17.91 14.28Q17.93 14.48 18.00 14.64L18.00 14.64L18.00 14.64Q18.07 14.81 18.20 14.92L18.20 14.92L18.20 14.92Q18.33 15.02 18.52 15.02L18.52 15.02L18.52 15.02Q18.90 15.02 19.26 14.85L19.26 14.85L19.26 14.85Q19.63 14.69 19.96 14.44L19.96 14.44L19.96 14.44Q20.29 14.20 20.57 13.91L20.57 13.91L20.57 13.91Q20.86 13.62 21.08 13.38L21.08 13.38L21.08 13.38Q21.22 13.51 21.32 13.62L21.32 13.62L21.32 13.62Q20.69 14.46 19.94 15.02L19.94 15.02L19.94 15.02Q19.19 15.57 18.52 15.72L18.52 15.72L18.52 15.72Q17.56 15.61 17.02 15.02L17.02 15.02L17.02 15.02Q16.48 14.42 16.48 13.58L16.48 13.58L16.48 13.58Q16.48 13.01 16.64 12.41L16.64 12.41L16.64 12.41Q16.80 11.82 17.09 11.26L17.09 11.26L17.09 11.26Q17.37 10.71 17.76 10.22L17.76 10.22L17.76 10.22Q18.14 9.73 18.59 9.37L18.59 9.37L18.59 9.37Q19.03 9.00 19.50 8.79L19.50 8.79L19.50 8.79Q19.96 8.58 20.43 8.58L20.43 8.58L20.43 8.58Q21.07 8.67 21.63 9.38ZM20.66 9.84L20.66 9.84L20.66 9.84Q20.29 9.90 19.88 10.15L19.88 10.15L19.88 10.15Q19.47 10.40 19.12 10.82L19.12 10.82L19.12 10.82Q18.76 11.24 18.47 11.80L18.47 11.80L18.47 11.80Q18.17 12.36 18.00 13.01L18.00 13.01L18.00 13.01Q19.12 12.45 19.87 11.63L19.87 11.63L19.87 11.63Q20.61 10.81 20.66 9.84ZM22.26 14.28L22.26 14.28L22.26 14.28Q22.26 13.66 22.55 12.55L22.55 12.55L22.55 12.55Q22.85 11.44 23.38 9.95L23.38 9.95L23.38 9.95Q24.25 7.59 25.01 6.01L25.01 6.01L25.01 6.01Q25.77 4.44 26.50 3.56L26.50 3.56L26.50 3.56Q26.67 3.58 26.91 3.70L26.91 3.70L26.91 3.70Q27.16 3.81 27.40 3.94L27.40 3.94L27.40 3.94Q27.64 4.07 27.82 4.21L27.82 4.21L27.82 4.21Q28.01 4.35 28.07 4.44L28.07 4.44L28.07 4.44Q26.98 5.73 26.15 7.21L26.15 7.21L26.15 7.21Q25.33 8.69 24.64 10.61L24.64 10.61L24.64 10.61Q24.05 12.26 23.74 13.59L23.74 13.59L23.74 13.59Q23.44 14.91 23.44 15.79L23.44 15.79L23.44 15.79Q23.44 16.03 23.44 16.09L23.44 16.09L23.44 16.09Q23.44 16.14 23.45 16.20L23.45 16.20L23.45 16.20Q23.25 16.17 23.11 16.10L23.11 16.10L23.11 16.10Q22.97 16.03 22.93 15.93L22.93 15.93L22.93 15.93Q22.90 15.86 22.78 15.73L22.78 15.73L22.78 15.73Q22.65 15.60 22.55 15.53L22.55 15.53L22.55 15.53Q22.43 15.44 22.34 15.09L22.34 15.09L22.34 15.09Q22.26 14.73 22.26 14.28ZM38.49 7.46L38.49 7.46L38.49 7.46Q38.49 8.13 38.19 8.73L38.19 8.73L38.19 8.73Q37.88 9.32 37.35 9.79L37.35 9.79L37.35 9.79Q36.82 10.26 36.11 10.58L36.11 10.58L36.11 10.58Q35.39 10.91 34.55 11.02L34.55 11.02L34.55 11.02Q34.76 11.65 35.06 12.31L35.06 12.31L35.06 12.31Q35.36 12.98 35.71 13.59L35.71 13.59L35.71 13.59Q36.06 14.21 36.44 14.73L36.44 14.73L36.44 14.73Q36.82 15.25 37.18 15.58L37.18 15.58L37.18 15.58Q37.11 15.72 36.98 15.86L36.98 15.86L36.98 15.86Q36.85 16.00 36.67 16.12L36.67 16.12L36.67 16.12Q36.50 16.24 36.31 16.32L36.31 16.32L36.31 16.32Q36.12 16.39 35.95 16.39L35.95 16.39L35.95 16.39Q35.64 16.39 35.36 16.10L35.36 16.10L35.36 16.10Q35.08 15.81 34.80 15.17L34.80 15.17L34.80 15.17Q34.51 14.53 34.20 13.52L34.20 13.52L34.20 13.52Q33.88 12.50 33.50 11.07L33.50 11.07L33.50 11.07Q33.35 11.07 33.19 11.07L33.19 11.07L33.19 11.07Q33.04 11.07 32.96 11.05L32.96 11.05L32.96 11.05Q32.86 10.99 32.75 10.85L32.75 10.85L32.75 10.85Q32.37 11.66 32.07 12.38L32.07 12.38L32.07 12.38Q31.78 13.09 31.55 13.76L31.55 13.76L31.55 13.76Q31.32 14.42 31.14 15.04L31.14 15.04L31.14 15.04Q30.97 15.67 30.84 16.31L30.84 16.31L30.84 16.31Q30.37 16.20 30.02 15.90L30.02 15.90L30.02 15.90Q29.67 15.61 29.36 15.08L29.36 15.08L29.36 15.08Q29.41 14.95 29.48 14.83L29.48 14.83L29.48 14.83Q29.54 14.71 29.64 14.50L29.64 14.50L29.64 14.50Q29.74 14.28 29.88 13.94L29.88 13.94L29.88 13.94Q30.03 13.61 30.27 13.05L30.27 13.05L30.27 13.05Q30.52 12.49 30.86 11.68L30.86 11.68L30.86 11.68Q31.21 10.86 31.70 9.70L31.70 9.70L31.70 9.70Q31.92 9.18 32.08 8.79L32.08 8.79L32.08 8.79Q32.24 8.40 32.37 8.04L32.37 8.04L32.37 8.04Q32.49 7.69 32.60 7.33L32.60 7.33L32.60 7.33Q32.70 6.97 32.82 6.51L32.82 6.51L32.82 6.51Q32.17 6.73 31.62 7.01L31.62 7.01L31.62 7.01Q31.07 7.28 30.70 7.59L30.70 7.59L30.70 7.59Q30.58 7.50 30.44 7.34L30.44 7.34L30.44 7.34Q30.31 7.17 30.20 6.96L30.20 6.96L30.20 6.96Q30.09 6.76 30.00 6.55L30.00 6.55L30.00 6.55Q29.92 6.34 29.90 6.17L29.90 6.17L29.90 6.17Q30.32 5.89 30.93 5.66L30.93 5.66L30.93 5.66Q31.54 5.42 32.23 5.24L32.23 5.24L32.23 5.24Q32.91 5.07 33.63 4.97L33.63 4.97L33.63 4.97Q34.34 4.87 34.96 4.87L34.96 4.87L34.96 4.87Q36.64 4.87 37.56 5.56L37.56 5.56L37.56 5.56Q38.49 6.26 38.49 7.46ZM34.90 6.02L35.07 6.29L35.07 6.29Q34.97 6.41 34.76 6.79L34.76 6.79L34.76 6.79Q34.55 7.17 34.28 7.69L34.28 7.69L34.28 7.69Q34.01 8.22 33.70 8.83L33.70 8.83L33.70 8.83Q33.40 9.45 33.12 10.05L33.12 10.05L33.12 10.05Q34.17 10.05 35.06 9.86L35.06 9.86L35.06 9.86Q35.94 9.66 36.58 9.30L36.58 9.30L36.58 9.30Q37.23 8.95 37.58 8.46L37.58 8.46L37.58 8.46Q37.94 7.98 37.94 7.39L37.94 7.39L37.94 7.39Q37.94 6.69 37.44 6.32L37.44 6.32L37.44 6.32Q36.93 5.95 35.88 5.95L35.88 5.95L35.88 5.95Q35.64 5.95 35.41 5.97L35.41 5.97L35.41 5.97Q35.17 5.99 34.90 6.02L34.90 6.02ZM42.91 9.52L42.91 9.52L42.91 9.52Q43.05 9.52 43.24 9.57L43.24 9.57L43.24 9.57Q43.43 9.62 43.58 9.70L43.58 9.70L43.58 9.70Q43.74 9.77 43.84 9.86L43.84 9.86L43.84 9.86Q43.95 9.94 43.95 10.01L43.95 10.01L43.95 10.01Q43.67 10.60 43.43 11.19L43.43 11.19L43.43 11.19Q43.19 11.79 43.02 12.33L43.02 12.33L43.02 12.33Q42.85 12.88 42.76 13.36L42.76 13.36L42.76 13.36Q42.67 13.83 42.67 14.18L42.67 14.18L42.67 14.18Q42.67 14.57 42.76 14.83L42.76 14.83L42.76 14.83Q42.84 15.09 43.04 15.20L43.04 15.20L43.04 15.20Q42.87 15.32 42.60 15.39L42.60 15.39L42.60 15.39Q42.34 15.46 42.13 15.46L42.13 15.46L42.13 15.46Q41.37 15.46 41.37 14.42L41.37 14.42L41.37 14.42Q41.37 13.62 41.90 12.24L41.90 12.24L41.90 12.24Q41.62 12.88 41.26 13.45L41.26 13.45L41.26 13.45Q40.89 14.01 40.52 14.45L40.52 14.45L40.52 14.45Q40.14 14.88 39.75 15.15L39.75 15.15L39.75 15.15Q39.37 15.43 39.05 15.48L39.05 15.48L39.05 15.48Q38.53 15.46 38.21 14.99L38.21 14.99L38.21 14.99Q37.88 14.52 37.88 13.79L37.88 13.79L37.88 13.79Q37.88 13.01 38.22 12.14L38.22 12.14L38.22 12.14Q38.56 11.27 39.08 10.53L39.08 10.53L39.08 10.53Q39.61 9.79 40.22 9.29L40.22 9.29L40.22 9.29Q40.84 8.79 41.41 8.76L41.41 8.76L41.41 8.76Q41.55 8.81 41.73 8.93L41.73 8.93L41.73 8.93Q41.90 9.06 42.06 9.23L42.06 9.23L42.06 9.23Q42.22 9.39 42.34 9.57L42.34 9.57L42.34 9.57Q42.45 9.74 42.46 9.87L42.46 9.87L42.46 9.87Q41.90 9.95 41.31 10.42L41.31 10.42L41.31 10.42Q40.71 10.88 40.23 11.53L40.23 11.53L40.23 11.53Q39.75 12.18 39.44 12.92L39.44 12.92L39.44 12.92Q39.13 13.66 39.13 14.31L39.13 14.31L39.13 14.31Q39.13 14.57 39.33 14.64L39.33 14.64L39.33 14.64Q39.73 14.56 40.26 13.95L40.26 13.95L40.26 13.95Q40.80 13.34 41.55 12.07L41.55 12.07L41.55 12.07Q41.69 11.82 41.87 11.51L41.87 11.51L41.87 11.51Q42.04 11.20 42.22 10.86L42.22 10.86L42.22 10.86Q42.41 10.53 42.58 10.18L42.58 10.18L42.58 10.18Q42.76 9.84 42.91 9.52ZM45.26 10.22L45.26 10.22L45.26 10.22Q45.26 9.97 45.30 9.74L45.30 9.74L45.30 9.74Q45.33 9.52 45.44 9.36L45.44 9.36L45.44 9.36Q45.56 9.20 45.75 9.11L45.75 9.11L45.75 9.11Q45.95 9.02 46.27 9.02L46.27 9.02L46.27 9.02Q46.47 9.02 46.71 9.06L46.71 9.06L46.71 9.06Q46.96 9.10 47.07 9.21L47.07 9.21L47.07 9.21Q47.01 9.45 46.98 9.63L46.98 9.63L46.98 9.63Q46.94 9.81 46.92 10.03L46.92 10.03L46.92 10.03Q46.90 10.25 46.89 10.55L46.89 10.55L46.89 10.55Q46.87 10.85 46.86 11.33L46.86 11.33L46.86 11.33Q46.83 12.28 46.77 13.03L46.77 13.03L46.77 13.03Q46.70 13.78 46.48 14.52L46.48 14.52L46.48 14.52Q46.48 14.57 46.52 14.57L46.52 14.57L46.52 14.57Q46.73 14.42 47.00 14.13L47.00 14.13L47.00 14.13Q47.26 13.83 47.56 13.46L47.56 13.46L47.56 13.46Q47.85 13.09 48.15 12.67L48.15 12.67L48.15 12.67Q48.44 12.25 48.69 11.84L48.69 11.84L48.69 11.84Q49.03 11.26 49.43 10.37L49.43 10.37L49.43 10.37Q49.84 9.49 50.11 8.48L50.11 8.48L50.11 8.48Q50.19 8.48 50.32 8.52L50.32 8.52L50.32 8.52Q50.46 8.55 50.59 8.60L50.59 8.60L50.59 8.60Q50.72 8.65 50.83 8.71L50.83 8.71L50.83 8.71Q50.93 8.76 50.97 8.81L50.97 8.81L50.97 8.81Q50.95 9.41 50.69 10.04L50.69 10.04L50.69 10.04Q50.43 10.67 50.06 11.26L50.06 11.26L50.06 11.26Q49.70 11.84 49.29 12.36L49.29 12.36L49.29 12.36Q48.89 12.88 48.55 13.26L48.55 13.26L48.55 13.26Q47.88 14.04 47.20 14.66L47.20 14.66L47.20 14.66Q46.52 15.27 45.58 15.85L45.58 15.85L45.58 15.85Q45.22 15.71 45.01 15.48L45.01 15.48L45.01 15.48Q44.80 15.25 44.80 14.99L44.80 14.99L44.80 14.99Q44.80 14.83 44.88 14.61L44.88 14.61L44.88 14.61Q44.95 14.39 45.05 14.05L45.05 14.05L45.05 14.05Q45.15 13.71 45.23 13.19L45.23 13.19L45.23 13.19Q45.30 12.67 45.30 11.87L45.30 11.87L45.30 11.87Q45.30 11.41 45.28 10.94L45.28 10.94L45.28 10.94Q45.26 10.47 45.26 10.22ZM55.59 9.52L55.59 9.52L55.59 9.52Q55.73 9.52 55.92 9.57L55.92 9.57L55.92 9.57Q56.11 9.62 56.27 9.70L56.27 9.70L56.27 9.70Q56.42 9.77 56.52 9.86L56.52 9.86L56.52 9.86Q56.63 9.94 56.63 10.01L56.63 10.01L56.63 10.01Q56.35 10.60 56.11 11.19L56.11 11.19L56.11 11.19Q55.87 11.79 55.71 12.33L55.71 12.33L55.71 12.33Q55.54 12.88 55.45 13.36L55.45 13.36L55.45 13.36Q55.36 13.83 55.36 14.18L55.36 14.18L55.36 14.18Q55.36 14.57 55.44 14.83L55.44 14.83L55.44 14.83Q55.52 15.09 55.72 15.20L55.72 15.20L55.72 15.20Q55.55 15.32 55.29 15.39L55.29 15.39L55.29 15.39Q55.02 15.46 54.81 15.46L54.81 15.46L54.81 15.46Q54.05 15.46 54.05 14.42L54.05 14.42L54.05 14.42Q54.05 13.62 54.59 12.24L54.59 12.24L54.59 12.24Q54.31 12.88 53.94 13.45L53.94 13.45L53.94 13.45Q53.58 14.01 53.20 14.45L53.20 14.45L53.20 14.45Q52.82 14.88 52.44 15.15L52.44 15.15L52.44 15.15Q52.05 15.43 51.73 15.48L51.73 15.48L51.73 15.48Q51.21 15.46 50.89 14.99L50.89 14.99L50.89 14.99Q50.57 14.52 50.57 13.79L50.57 13.79L50.57 13.79Q50.57 13.01 50.90 12.14L50.90 12.14L50.90 12.14Q51.24 11.27 51.77 10.53L51.77 10.53L51.77 10.53Q52.29 9.79 52.91 9.29L52.91 9.29L52.91 9.29Q53.52 8.79 54.10 8.76L54.10 8.76L54.10 8.76Q54.24 8.81 54.41 8.93L54.41 8.93L54.41 8.93Q54.59 9.06 54.75 9.23L54.75 9.23L54.75 9.23Q54.91 9.39 55.02 9.57L55.02 9.57L55.02 9.57Q55.13 9.74 55.15 9.87L55.15 9.87L55.15 9.87Q54.59 9.95 53.99 10.42L53.99 10.42L53.99 10.42Q53.40 10.88 52.91 11.53L52.91 11.53L52.91 11.53Q52.43 12.18 52.12 12.92L52.12 12.92L52.12 12.92Q51.81 13.66 51.81 14.31L51.81 14.31L51.81 14.31Q51.81 14.57 52.01 14.64L52.01 14.64L52.01 14.64Q52.42 14.56 52.95 13.95L52.95 13.95L52.95 13.95Q53.48 13.34 54.24 12.07L54.24 12.07L54.24 12.07Q54.38 11.82 54.55 11.51L54.55 11.51L54.55 11.51Q54.73 11.20 54.91 10.86L54.91 10.86L54.91 10.86Q55.09 10.53 55.27 10.18L55.27 10.18L55.27 10.18Q55.44 9.84 55.59 9.52ZM57.33 14.28L57.33 14.28L57.33 14.28Q57.33 13.66 57.62 12.55L57.62 12.55L57.62 12.55Q57.92 11.44 58.45 9.95L58.45 9.95L58.45 9.95Q59.32 7.59 60.08 6.01L60.08 6.01L60.08 6.01Q60.84 4.44 61.57 3.56L61.57 3.56L61.57 3.56Q61.74 3.58 61.98 3.70L61.98 3.70L61.98 3.70Q62.23 3.81 62.47 3.94L62.47 3.94L62.47 3.94Q62.71 4.07 62.89 4.21L62.89 4.21L62.89 4.21Q63.08 4.35 63.14 4.44L63.14 4.44L63.14 4.44Q62.05 5.73 61.22 7.21L61.22 7.21L61.22 7.21Q60.40 8.69 59.71 10.61L59.71 10.61L59.71 10.61Q59.12 12.26 58.81 13.59L58.81 13.59L58.81 13.59Q58.51 14.91 58.51 15.79L58.51 15.79L58.51 15.79Q58.51 16.03 58.51 16.09L58.51 16.09L58.51 16.09Q58.51 16.14 58.52 16.20L58.52 16.20L58.52 16.20Q58.32 16.17 58.18 16.10L58.18 16.10L58.18 16.10Q58.04 16.03 58.00 15.93L58.00 15.93L58.00 15.93Q57.97 15.86 57.85 15.73L57.85 15.73L57.85 15.73Q57.72 15.60 57.62 15.53L57.62 15.53L57.62 15.53Q57.50 15.44 57.41 15.09L57.41 15.09L57.41 15.09Q57.33 14.73 57.33 14.28ZM65.42 9.52L65.42 9.52L65.42 9.52Q65.56 9.52 65.75 9.57L65.75 9.57L65.75 9.57Q65.94 9.62 66.09 9.70L66.09 9.70L66.09 9.70Q66.25 9.77 66.35 9.86L66.35 9.86L66.35 9.86Q66.46 9.94 66.46 10.01L66.46 10.01L66.46 10.01Q66.18 10.60 65.94 11.19L65.94 11.19L65.94 11.19Q65.70 11.79 65.53 12.33L65.53 12.33L65.53 12.33Q65.37 12.88 65.28 13.36L65.28 13.36L65.28 13.36Q65.18 13.83 65.18 14.18L65.18 14.18L65.18 14.18Q65.18 14.57 65.27 14.83L65.27 14.83L65.27 14.83Q65.35 15.09 65.55 15.20L65.55 15.20L65.55 15.20Q65.38 15.32 65.11 15.39L65.11 15.39L65.11 15.39Q64.85 15.46 64.64 15.46L64.64 15.46L64.64 15.46Q63.88 15.46 63.88 14.42L63.88 14.42L63.88 14.42Q63.88 13.62 64.41 12.24L64.41 12.24L64.41 12.24Q64.13 12.88 63.77 13.45L63.77 13.45L63.77 13.45Q63.41 14.01 63.03 14.45L63.03 14.45L63.03 14.45Q62.65 14.88 62.27 15.15L62.27 15.15L62.27 15.15Q61.88 15.43 61.56 15.48L61.56 15.48L61.56 15.48Q61.04 15.46 60.72 14.99L60.72 14.99L60.72 14.99Q60.40 14.52 60.40 13.79L60.40 13.79L60.40 13.79Q60.40 13.01 60.73 12.14L60.73 12.14L60.73 12.14Q61.07 11.27 61.59 10.53L61.59 10.53L61.59 10.53Q62.12 9.79 62.73 9.29L62.73 9.29L62.73 9.29Q63.35 8.79 63.92 8.76L63.92 8.76L63.92 8.76Q64.06 8.81 64.24 8.93L64.24 8.93L64.24 8.93Q64.41 9.06 64.58 9.23L64.58 9.23L64.58 9.23Q64.74 9.39 64.85 9.57L64.85 9.57L64.85 9.57Q64.96 9.74 64.97 9.87L64.97 9.87L64.97 9.87Q64.41 9.95 63.82 10.42L63.82 10.42L63.82 10.42Q63.22 10.88 62.74 11.53L62.74 11.53L62.74 11.53Q62.26 12.18 61.95 12.92L61.95 12.92L61.95 12.92Q61.64 13.66 61.64 14.31L61.64 14.31L61.64 14.31Q61.64 14.57 61.84 14.64L61.84 14.64L61.84 14.64Q62.24 14.56 62.78 13.95L62.78 13.95L62.78 13.95Q63.31 13.34 64.06 12.07L64.06 12.07L64.06 12.07Q64.20 11.82 64.38 11.51L64.38 11.51L64.38 11.51Q64.55 11.20 64.74 10.86L64.74 10.86L64.74 10.86Q64.92 10.53 65.09 10.18L65.09 10.18L65.09 10.18Q65.27 9.84 65.42 9.52ZM69.44 8.39L69.44 8.39L69.44 8.39Q69.80 8.50 70.13 8.88L70.13 8.88L70.13 8.88Q70.45 9.27 70.60 9.73L70.60 9.73L70.60 9.73Q70.45 10.11 70.13 10.64L70.13 10.64L70.13 10.64Q69.80 11.17 69.48 11.72L69.48 11.72L69.48 11.72Q69.16 12.28 68.90 12.78L68.90 12.78L68.90 12.78Q68.64 13.27 68.60 13.59L68.60 13.59L68.60 13.59Q68.82 13.36 69.10 13.04L69.10 13.04L69.10 13.04Q69.37 12.73 69.63 12.41L69.63 12.41L69.63 12.41Q69.89 12.10 70.11 11.84L70.11 11.84L70.11 11.84Q70.34 11.58 70.46 11.45L70.46 11.45L70.46 11.45Q70.73 11.17 71.09 10.80L71.09 10.80L71.09 10.80Q71.46 10.43 71.86 10.10L71.86 10.10L71.86 10.10Q72.25 9.77 72.66 9.54L72.66 9.54L72.66 9.54Q73.07 9.31 73.40 9.31L73.40 9.31L73.40 9.31Q73.77 9.31 74.01 9.55L74.01 9.55L74.01 9.55Q74.26 9.80 74.40 10.07L74.40 10.07L74.40 10.07Q74.40 10.09 74.29 10.14L74.29 10.14L74.29 10.14Q74.19 10.19 73.99 10.42L73.99 10.42L73.99 10.42Q73.79 10.67 73.55 11.11L73.55 11.11L73.55 11.11Q73.30 11.55 73.07 12.06L73.07 12.06L73.07 12.06Q72.84 12.57 72.69 13.10L72.69 13.10L72.69 13.10Q72.53 13.64 72.53 14.07L72.53 14.07L72.53 14.07Q72.53 14.42 72.63 14.52L72.63 14.52L72.63 14.52Q72.72 14.62 72.88 14.62L72.88 14.62L72.88 14.62Q73.04 14.62 73.21 14.55L73.21 14.55L73.21 14.55Q73.37 14.48 73.47 14.48L73.47 14.48L73.47 14.48Q73.53 14.50 73.56 14.60L73.56 14.60L73.56 14.60Q73.60 14.69 73.60 14.76L73.60 14.76L73.60 14.76Q73.49 14.85 73.33 14.95L73.33 14.95L73.33 14.95Q73.18 15.05 73.01 15.13L73.01 15.13L73.01 15.13Q72.84 15.22 72.68 15.27L72.68 15.27L72.68 15.27Q72.52 15.33 72.39 15.33L72.39 15.33L72.39 15.33Q71.99 15.33 71.73 15.21L71.73 15.21L71.73 15.21Q71.47 15.09 71.32 14.90L71.32 14.90L71.32 14.90Q71.18 14.70 71.12 14.43L71.12 14.43L71.12 14.43Q71.06 14.15 71.06 13.85L71.06 13.85L71.06 13.85Q71.06 13.68 71.09 13.47L71.09 13.47L71.09 13.47Q71.12 13.26 71.20 12.97L71.20 12.97L71.20 12.97Q71.29 12.68 71.44 12.29L71.44 12.29L71.44 12.29Q71.60 11.89 71.83 11.33L71.83 11.33L71.83 11.33Q71.81 11.33 71.46 11.52L71.46 11.52L71.46 11.52Q71.11 11.72 70.70 12.12L70.70 12.12L70.70 12.12Q70.04 12.75 69.52 13.37L69.52 13.37L69.52 13.37Q68.99 13.99 68.45 14.74L68.45 14.74L68.45 14.74Q68.14 15.18 67.91 15.48L67.91 15.48L67.91 15.48Q67.68 15.78 67.51 15.88L67.51 15.88L67.51 15.88Q67.21 15.71 67.07 15.41L67.07 15.41L67.07 15.41Q66.93 15.11 66.86 14.78L66.86 14.78L66.86 14.78Q66.86 14.52 66.94 14.11L66.94 14.11L66.94 14.11Q67.02 13.71 67.15 13.21L67.15 13.21L67.15 13.21Q67.28 12.71 67.48 12.17L67.48 12.17L67.48 12.17Q67.68 11.62 67.91 11.07L67.91 11.07L67.91 11.07Q68.45 9.84 68.89 9.14L68.89 9.14L68.89 9.14Q69.33 8.44 69.44 8.39ZM74.75 14.24L74.75 14.24L74.75 14.24Q74.75 14.11 74.77 13.92L74.77 13.92L74.77 13.92Q74.79 13.73 74.84 13.42L74.84 13.42L74.84 13.42Q74.90 13.10 74.99 12.66L74.99 12.66L74.99 12.66Q75.08 12.21 75.22 11.58L75.22 11.58L75.22 11.58Q75.25 11.44 75.35 11.13L75.35 11.13L75.35 11.13Q75.45 10.82 75.61 10.48L75.61 10.48L75.61 10.48Q75.77 10.14 76.00 9.81L76.00 9.81L76.00 9.81Q76.23 9.49 76.55 9.34L76.55 9.34L76.55 9.34Q76.79 9.39 77.18 9.63L77.18 9.63L77.18 9.63Q77.57 9.86 77.85 10.26L77.85 10.26L77.85 10.26Q77.53 10.63 77.32 10.99L77.32 10.99L77.32 10.99Q77.10 11.35 76.92 11.75L76.92 11.75L76.92 11.75Q76.75 12.14 76.60 12.56L76.60 12.56L76.60 12.56Q76.45 12.98 76.27 13.44L76.27 13.44L76.27 13.44Q76.12 13.83 75.99 14.25L75.99 14.25L75.99 14.25Q75.87 14.66 75.85 14.97L75.85 14.97L75.85 14.97Q75.85 15.22 75.85 15.32L75.85 15.32L75.85 15.32Q75.84 15.43 75.77 15.43L75.77 15.43L75.77 15.43Q75.71 15.43 75.54 15.36L75.54 15.36L75.54 15.36Q75.38 15.29 75.20 15.14L75.20 15.14L75.20 15.14Q75.03 14.99 74.89 14.77L74.89 14.77L74.89 14.77Q74.75 14.55 74.75 14.24ZM77.42 8.16L77.42 8.16L77.42 8.16Q77.42 8.08 77.46 7.91L77.46 7.91L77.46 7.91Q77.39 7.84 77.34 7.70L77.34 7.70L77.34 7.70Q77.29 7.56 77.29 7.45L77.29 7.45L77.29 7.45Q77.29 7.32 77.33 7.11L77.33 7.11L77.33 7.11Q77.36 6.89 77.42 6.64L77.42 6.64L77.42 6.64Q77.48 6.38 77.56 6.11L77.56 6.11L77.56 6.11Q77.64 5.84 77.73 5.61L77.73 5.61L77.73 5.61Q77.90 5.61 78.14 5.71L78.14 5.71L78.14 5.71Q78.39 5.80 78.64 5.94L78.64 5.94L78.64 5.94Q78.89 6.09 79.10 6.27L79.10 6.27L79.10 6.27Q79.31 6.44 79.42 6.59L79.42 6.59L79.42 6.59Q79.27 6.75 79.02 7.02L79.02 7.02L79.02 7.02Q78.76 7.29 78.53 7.59L78.53 7.59L78.53 7.59Q78.29 7.90 78.09 8.16L78.09 8.16L78.09 8.16Q77.90 8.43 77.84 8.54L77.84 8.54L77.84 8.54Q77.67 8.51 77.55 8.39L77.55 8.39L77.55 8.39Q77.42 8.27 77.42 8.16Z"></path></g><!----><!----></svg>